<?xml version="1.0" standalone="no"?>
<!DOCTYPE svg PUBLIC "-//W3C//DTD SVG 20010904//EN"
 "http://www.w3.org/TR/2001/REC-SVG-20010904/DTD/svg10.dtd">
<svg version="1.0" xmlns="http://www.w3.org/2000/svg"
 width="500.000000pt" height="500.000000pt" viewBox="0 0 500.000000 500.000000"
 preserveAspectRatio="xMidYMid meet">
<metadata>
Created by potrace 1.14, written by Peter Selinger 2001-2017
</metadata>
<g transform="translate(0.000000,500.000000) scale(0.100000,-0.100000)"
fill="#000000" stroke="none">
<path d="M2450 4059 c-14 -6 -41 -27 -61 -47 -33 -34 -115 -109 -213 -193 -21
-19 -48 -43 -60 -54 -12 -11 -75 -69 -141 -130 -66 -60 -163 -151 -215 -201
-52 -50 -162 -154 -245 -231 -350 -328 -385 -365 -385 -404 0 -57 37 -89 93
-81 24 4 64 37 172 141 129 126 303 292 331 316 6 6 98 94 205 196 107 103
237 224 289 269 52 46 128 115 168 154 39 39 79 74 88 79 18 10 58 -18 137
-96 29 -29 79 -76 112 -106 112 -101 254 -234 346 -323 51 -49 106 -100 123
-115 17 -14 69 -62 116 -107 47 -44 124 -115 170 -156 46 -41 117 -107 158
-146 40 -39 91 -81 111 -92 36 -20 39 -21 72 -4 32 16 34 20 33 66 0 39 -5 53
-25 69 -13 10 -51 45 -85 76 -33 31 -104 96 -157 144 l-97 89 4 366 c1 202 -1
381 -6 399 -5 20 -17 34 -31 39 -12 4 -116 7 -231 8 -173 1 -213 -2 -228 -14
-16 -13 -20 -35 -24 -160 -3 -80 -8 -147 -10 -149 -1 -2 -39 32 -83 76 -43 43
-104 101 -136 127 -31 27 -90 82 -132 122 -41 41 -80 74 -87 74 -6 0 -20 2
-31 5 -11 2 -31 0 -45 -6z m905 -491 c-1 -142 -5 -261 -7 -263 -2 -3 -36 26
-75 63 -39 37 -91 86 -117 110 l-46 43 0 154 0 154 103 3 c164 5 146 38 142
-264z"/>
<path d="M2939 3058 c-45 -46 -98 -103 -118 -128 -20 -25 -60 -67 -90 -95 -30
-27 -69 -66 -85 -85 -17 -19 -58 -64 -91 -100 -34 -36 -67 -77 -75 -93 l-14
-27 -32 31 c-26 25 -31 36 -24 50 5 9 12 46 16 80 5 51 2 75 -16 121 -21 57
-33 71 -151 168 -29 25 -65 56 -79 70 -44 44 -96 80 -117 80 -26 0 -72 -36
-83 -65 -5 -13 -20 -24 -37 -28 -46 -9 -74 -38 -80 -82 -5 -39 -6 -41 -38 -37
-26 3 -36 -2 -54 -23 -39 -51 -28 -89 55 -175 29 -30 66 -73 82 -96 51 -71
116 -132 157 -150 23 -9 74 -18 119 -19 l80 -3 22 -39 c32 -57 38 -92 17 -100
-10 -3 -104 -94 -210 -201 -134 -136 -194 -204 -200 -226 -16 -66 5 -129 54
-164 40 -28 68 -35 115 -27 37 7 58 24 188 156 81 81 170 174 197 206 l51 58
20 -26 c77 -97 339 -367 376 -386 81 -42 201 30 207 123 5 70 -7 87 -199 276
-103 102 -202 200 -220 220 l-32 34 71 49 c39 27 122 99 184 159 101 101 115
118 145 191 29 69 34 95 38 185 5 115 -8 169 -47 189 -18 10 -30 2 -102 -71z"/>
<path d="M1505 2820 c-28 -20 -57 -45 -65 -55 -13 -15 -15 -118 -15 -734 -1
-766 -2 -751 49 -785 23 -15 113 -16 1022 -16 911 0 998 1 1024 17 16 9 33 27
39 39 7 16 10 261 10 736 l0 713 -66 52 c-46 36 -71 49 -78 42 -7 -7 -10 -245
-10 -719 -1 -390 -4 -713 -9 -717 -4 -4 -414 -8 -912 -8 -747 -1 -904 1 -909
13 -2 7 -4 330 -4 716 1 583 -1 707 -12 724 -14 19 -16 18 -64 -18z"/>
</g>
</svg>
